<?xml version="1.0" encoding="iso-8859-1"?>
<!-- Generator: Adobe Illustrator 19.0.0, SVG Export Plug-In . SVG Version: 6.00 Build 0)  -->
<svg version="1.1" id="Layer_1" xmlns="http://www.w3.org/2000/svg" xmlns:xlink="http://www.w3.org/1999/xlink" x="0px" y="0px"
	 viewBox="0 0 512 512" style="enable-background:new 0 0 512 512;" xml:space="preserve">
<g>
	<g>
		<g>
			<path d="M469.333,119.467H384c-14.114,0-25.6-11.486-25.6-25.6V51.2c0-4.71-3.823-8.533-8.533-8.533
				c-4.71,0-8.533,3.823-8.533,8.533v42.667c0,23.526,19.14,42.667,42.667,42.667h76.8v332.8c0,14.114-11.486,25.6-25.6,25.6H76.8
				c-14.114,0-25.6-11.486-25.6-25.6V42.667c0-14.114,11.486-25.6,25.6-25.6h269.534L429.167,99.9c3.337,3.337,8.73,3.337,12.066,0
				c3.336-3.336,3.336-8.73,0-12.066L355.9,2.5c-1.596-1.604-3.772-2.5-6.033-2.5H76.8C53.274,0,34.133,19.14,34.133,42.667v426.667
				C34.133,492.86,53.274,512,76.8,512h358.4c23.526,0,42.667-19.14,42.667-42.667V128
				C477.867,123.29,474.044,119.467,469.333,119.467z"/>
			<path d="M315.733,324.267c4.71,0,8.533-3.823,8.533-8.533s-3.823-8.533-8.533-8.533c-23.526,0-42.667,19.14-42.667,42.667
				c0,23.526,19.14,42.667,42.667,42.667c23.526,0,42.667-19.14,42.667-42.667v-153.6c0-2.628-1.212-5.111-3.285-6.724
				c-2.065-1.621-4.787-2.202-7.322-1.553L211.26,222.123c-3.797,0.947-6.46,4.361-6.46,8.277V384c0,14.114-11.486,25.6-25.6,25.6
				s-25.6-11.486-25.6-25.6s11.486-25.6,25.6-25.6c4.71,0,8.533-3.823,8.533-8.533s-3.823-8.533-8.533-8.533
				c-23.526,0-42.667,19.14-42.667,42.667c0,23.526,19.14,42.667,42.667,42.667c23.526,0,42.667-19.14,42.667-42.667V237.065
				l119.467-29.867v142.669c0,14.114-11.486,25.6-25.6,25.6s-25.6-11.486-25.6-25.6S301.619,324.267,315.733,324.267z"/>
		</g>
	</g>
</g>
<g>
</g>
<g>
</g>
<g>
</g>
<g>
</g>
<g>
</g>
<g>
</g>
<g>
</g>
<g>
</g>
<g>
</g>
<g>
</g>
<g>
</g>
<g>
</g>
<g>
</g>
<g>
</g>
<g>
</g>
</svg>
